<svg id="bb945329-0479-4b36-8575-e726451582f9" data-name="Layer 1" xmlns="http://www.w3.org/2000/svg" width="865.76" height="682.89" viewBox="0 0 865.76 682.89"><rect width="865.76" height="682.89" fill="#f0f3f8"/><polygon points="865.76 607.96 865.76 391.17 849.47 391.17 849.47 205.12 752.21 205.12 752.21 304.48 686.67 304.48 686.67 492.65 553.48 492.65 553.48 433.45 487.94 433.45 487.94 158.6 378 207.23 378 363.68 295.55 363.68 295.55 243.17 166.58 243.17 166.58 437.68 101.04 437.68 101.04 336.2 50.3 336.2 50.3 173.4 0 173.4 0 607.96 865.76 607.96" fill="#e6e6e6"/><rect x="179.04" y="258.52" width="15.96" height="30.46" fill="#f2f2f2"/><rect x="199.83" y="258.52" width="15.96" height="30.46" fill="#f2f2f2"/><rect x="220.63" y="258.52" width="15.96" height="30.46" fill="#f2f2f2"/><rect x="241.43" y="258.52" width="15.96" height="30.46" fill="#f2f2f2"/><rect x="179.04" y="295.68" width="15.96" height="30.46" fill="#f2f2f2"/><rect x="199.83" y="295.68" width="15.96" height="30.46" fill="#f2f2f2"/><rect x="220.63" y="295.68" width="15.96" height="30.46" fill="#f2f2f2"/><rect x="241.43" y="295.68" width="15.96" height="30.46" fill="#f2f2f2"/><rect x="179.04" y="332.83" width="15.96" height="30.46" fill="#f2f2f2"/><rect x="199.83" y="332.83" width="15.96" height="30.46" fill="#f2f2f2"/><rect x="220.63" y="332.83" width="15.96" height="30.46" fill="#f2f2f2"/><rect x="241.43" y="332.83" width="15.96" height="30.46" fill="#f2f2f2"/><rect x="179.04" y="369.98" width="15.96" height="30.46" fill="#f2f2f2"/><rect x="199.83" y="369.98" width="15.96" height="30.46" fill="#f2f2f2"/><rect x="220.63" y="369.98" width="15.96" height="30.46" fill="#f2f2f2"/><rect x="241.43" y="369.98" width="15.96" height="30.46" fill="#f2f2f2"/><rect x="179.04" y="407.13" width="15.96" height="30.46" fill="#f2f2f2"/><rect x="199.83" y="407.13" width="15.96" height="30.46" fill="#f2f2f2"/><rect x="220.63" y="407.13" width="15.96" height="30.46" fill="#f2f2f2"/><rect x="241.43" y="407.13" width="15.96" height="30.46" fill="#f2f2f2"/><rect x="399.34" y="253.75" width="10.55" height="20.14" fill="#f2f2f2"/><rect x="413.09" y="253.75" width="10.55" height="20.14" fill="#f2f2f2"/><rect x="426.85" y="253.75" width="10.55" height="20.14" fill="#f2f2f2"/><rect x="440.6" y="253.75" width="10.55" height="20.14" fill="#f2f2f2"/><rect x="399.34" y="278.32" width="10.55" height="20.14" fill="#f2f2f2"/><rect x="413.09" y="278.32" width="10.55" height="20.14" fill="#f2f2f2"/><rect x="426.85" y="278.32" width="10.55" height="20.14" fill="#f2f2f2"/><rect x="440.6" y="278.32" width="10.55" height="20.14" fill="#f2f2f2"/><rect x="399.34" y="302.89" width="10.55" height="20.14" fill="#f2f2f2"/><rect x="413.09" y="302.89" width="10.55" height="20.14" fill="#f2f2f2"/><rect x="426.85" y="302.89" width="10.55" height="20.14" fill="#f2f2f2"/><rect x="440.6" y="302.89" width="10.55" height="20.14" fill="#f2f2f2"/><rect x="399.34" y="327.46" width="10.55" height="20.14" fill="#f2f2f2"/><rect x="413.09" y="327.46" width="10.55" height="20.14" fill="#f2f2f2"/><rect x="426.85" y="327.46" width="10.55" height="20.14" fill="#f2f2f2"/><rect x="440.6" y="327.46" width="10.55" height="20.14" fill="#f2f2f2"/><rect x="399.34" y="352.03" width="10.55" height="20.14" fill="#f2f2f2"/><rect x="413.09" y="352.03" width="10.55" height="20.14" fill="#f2f2f2"/><rect x="426.85" y="352.03" width="10.55" height="20.14" fill="#f2f2f2"/><rect x="440.6" y="352.03" width="10.55" height="20.14" fill="#f2f2f2"/><rect x="36.85" y="365.98" width="10.55" height="20.14" fill="#f2f2f2"/><rect x="50.6" y="365.98" width="10.55" height="20.14" fill="#f2f2f2"/><rect x="64.35" y="365.98" width="10.55" height="20.14" fill="#f2f2f2"/><rect x="78.11" y="365.98" width="10.55" height="20.14" fill="#f2f2f2"/><rect x="36.85" y="390.55" width="10.55" height="20.14" fill="#f2f2f2"/><rect x="50.6" y="390.55" width="10.55" height="20.14" fill="#f2f2f2"/><rect x="64.35" y="390.55" width="10.55" height="20.14" fill="#f2f2f2"/><rect x="78.11" y="390.55" width="10.55" height="20.14" fill="#f2f2f2"/><rect x="36.85" y="415.12" width="10.55" height="20.14" fill="#f2f2f2"/><rect x="50.6" y="415.12" width="10.55" height="20.14" fill="#f2f2f2"/><rect x="64.35" y="415.12" width="10.55" height="20.14" fill="#f2f2f2"/><rect x="78.11" y="415.12" width="10.55" height="20.14" fill="#f2f2f2"/><rect x="36.85" y="439.69" width="10.55" height="20.14" fill="#f2f2f2"/><rect x="50.6" y="439.69" width="10.55" height="20.14" fill="#f2f2f2"/><rect x="64.35" y="439.69" width="10.55" height="20.14" fill="#f2f2f2"/><rect x="78.11" y="439.69" width="10.55" height="20.14" fill="#f2f2f2"/><rect x="36.85" y="464.26" width="10.55" height="20.14" fill="#f2f2f2"/><rect x="50.6" y="464.26" width="10.55" height="20.14" fill="#f2f2f2"/><rect x="64.35" y="464.26" width="10.55" height="20.14" fill="#f2f2f2"/><rect x="78.11" y="464.26" width="10.55" height="20.14" fill="#f2f2f2"/><rect x="355.99" y="437.6" width="7.67" height="14.64" fill="#f2f2f2"/><rect x="365.99" y="437.6" width="7.67" height="14.64" fill="#f2f2f2"/><rect x="375.98" y="437.6" width="7.67" height="14.64" fill="#f2f2f2"/><rect x="385.97" y="437.6" width="7.67" height="14.64" fill="#f2f2f2"/><rect x="355.99" y="455.45" width="7.67" height="14.64" fill="#f2f2f2"/><rect x="365.99" y="455.45" width="7.67" height="14.64" fill="#f2f2f2"/><rect x="375.98" y="455.45" width="7.67" height="14.64" fill="#f2f2f2"/><rect x="385.97" y="455.45" width="7.67" height="14.64" fill="#f2f2f2"/><rect x="355.99" y="473.3" width="7.67" height="14.64" fill="#f2f2f2"/><rect x="365.99" y="473.3" width="7.67" height="14.64" fill="#f2f2f2"/><rect x="375.98" y="473.3" width="7.67" height="14.64" fill="#f2f2f2"/><rect x="385.97" y="473.3" width="7.67" height="14.64" fill="#f2f2f2"/><rect x="355.99" y="491.15" width="7.67" height="14.64" fill="#f2f2f2"/><rect x="365.99" y="491.15" width="7.67" height="14.64" fill="#f2f2f2"/><rect x="375.98" y="491.15" width="7.67" height="14.64" fill="#f2f2f2"/><rect x="385.97" y="491.15" width="7.67" height="14.64" fill="#f2f2f2"/><rect x="355.99" y="509" width="7.67" height="14.64" fill="#f2f2f2"/><rect x="365.99" y="509" width="7.67" height="14.64" fill="#f2f2f2"/><rect x="375.98" y="509" width="7.67" height="14.64" fill="#f2f2f2"/><rect x="385.97" y="509" width="7.67" height="14.64" fill="#f2f2f2"/><rect y="572.33" width="865.76" height="110.56" fill="#f2f2f2"/><rect x="761.34" y="221.75" width="15.96" height="30.46" fill="#f2f2f2"/><rect x="782.13" y="221.75" width="15.96" height="30.46" fill="#f2f2f2"/><rect x="802.93" y="221.75" width="15.96" height="30.46" fill="#f2f2f2"/><rect x="823.72" y="221.75" width="15.96" height="30.46" fill="#f2f2f2"/><rect x="761.34" y="258.9" width="15.96" height="30.46" fill="#f2f2f2"/><rect x="782.13" y="258.9" width="15.96" height="30.46" fill="#f2f2f2"/><rect x="802.93" y="258.9" width="15.96" height="30.46" fill="#f2f2f2"/><rect x="823.72" y="258.9" width="15.96" height="30.46" fill="#f2f2f2"/><rect x="761.34" y="296.05" width="15.96" height="30.46" fill="#f2f2f2"/><rect x="782.13" y="296.05" width="15.96" height="30.46" fill="#f2f2f2"/><rect x="802.93" y="296.05" width="15.96" height="30.46" fill="#f2f2f2"/><rect x="823.72" y="296.05" width="15.96" height="30.46" fill="#f2f2f2"/><rect x="761.34" y="333.2" width="15.96" height="30.46" fill="#f2f2f2"/><rect x="782.13" y="333.2" width="15.96" height="30.46" fill="#f2f2f2"/><rect x="802.93" y="333.2" width="15.96" height="30.46" fill="#f2f2f2"/><rect x="823.72" y="333.2" width="15.96" height="30.46" fill="#f2f2f2"/><rect x="761.34" y="370.36" width="15.96" height="30.46" fill="#f2f2f2"/><rect x="782.13" y="370.36" width="15.96" height="30.46" fill="#f2f2f2"/><rect x="802.93" y="370.36" width="15.96" height="30.46" fill="#f2f2f2"/><rect x="823.72" y="370.36" width="15.96" height="30.46" fill="#f2f2f2"/><rect x="701.73" y="318.55" width="7.67" height="14.64" fill="#f2f2f2"/><rect x="711.72" y="318.55" width="7.67" height="14.64" fill="#f2f2f2"/><rect x="721.71" y="318.55" width="7.67" height="14.64" fill="#f2f2f2"/><rect x="731.7" y="318.55" width="7.67" height="14.64" fill="#f2f2f2"/><rect x="701.73" y="336.4" width="7.67" height="14.64" fill="#f2f2f2"/><rect x="711.72" y="336.4" width="7.67" height="14.64" fill="#f2f2f2"/><rect x="721.71" y="336.4" width="7.67" height="14.64" fill="#f2f2f2"/><rect x="731.7" y="336.4" width="7.67" height="14.64" fill="#f2f2f2"/><rect x="701.73" y="354.25" width="7.67" height="14.64" fill="#f2f2f2"/><rect x="711.72" y="354.25" width="7.67" height="14.64" fill="#f2f2f2"/><rect x="721.71" y="354.25" width="7.67" height="14.64" fill="#f2f2f2"/><rect x="731.7" y="354.25" width="7.67" height="14.64" fill="#f2f2f2"/><rect x="701.73" y="372.1" width="7.67" height="14.64" fill="#f2f2f2"/><rect x="711.72" y="372.1" width="7.67" height="14.64" fill="#f2f2f2"/><rect x="721.71" y="372.1" width="7.67" height="14.64" fill="#f2f2f2"/><rect x="731.7" y="372.1" width="7.67" height="14.64" fill="#f2f2f2"/><rect x="701.73" y="389.95" width="7.67" height="14.64" fill="#f2f2f2"/><rect x="711.72" y="389.95" width="7.67" height="14.64" fill="#f2f2f2"/><rect x="721.71" y="389.95" width="7.67" height="14.64" fill="#f2f2f2"/><rect x="731.7" y="389.95" width="7.67" height="14.64" fill="#f2f2f2"/><polygon points="687.6 646.13 669.22 649.18 652.88 593.84 674.5 590.26 687.6 646.13" fill="#f9b499"/><path d="M690,660.33l-47.22,7.83-.1-.6A18.64,18.64,0,0,1,658,646.13h0l7.55-8L682.69,642l4.12-.69Z" fill="#0071f2"/><polygon points="542.75 635.48 525.46 633.36 526.66 575.67 550.3 582.24 542.75 635.48" fill="#f9b499"/><path d="M541.84,650.27l-47.38-6.85.09-.6a18.63,18.63,0,0,1,21.11-15.77h0l9.6-5.32,15.2,8.9,4.13.6Z" fill="#0071f2"/><path d="M553.63,413.18s-5.46,10.46-11.85,4.73-7.86-11.13-6-14.62,13.16-11.86,13.16-11.86l5.75-10.15,8.75,12.34s-3.25,8.67-4,10.24Z" fill="#f9b499"/><path d="M684.43,421.3s4.13,11.06-4.41,12-13.53-1.62-14.91-5.3,0-17.71,0-17.71l-3.7-11.07,15,1.76s4.27,8.22,4.95,9.79Z" fill="#f9b499"/><path d="M624.62,520.71s0,0,0,.08" fill="#2f2e41" fill-rule="evenodd"/><path d="M627.82,240.11S615,238.8,609.89,258.92s-10.06,27.27-13.12,35.28c-2.92,8.17-7.88,22.75-11.38,27.56-3.64,5-27.26,52.49-29.6,56.57a82.58,82.58,0,0,1-7.87,9.77c-1,1,6,4.23,8.75,6.27s7.87,2.48,8.16.44,11.81-17.06,23.92-29.31a108.34,108.34,0,0,0,19-27s5-1.75,11.67-13,10.35-21,19.1-31.64,14.43-54.82-10.65-53.8Z" fill="#0071f2" fill-rule="evenodd"/><path d="M520.82,601l18.89-108.19,25.85-44c2.63-16.33,22.6-57.3,22.6-57.3,13.13,1.31,69,20.56,64.74,34s-26.1,19.54-30,22.74L574.39,512,547.92,623Z" fill="#2f2e41" fill-rule="evenodd"/><path d="M597.35,207.89s8.16,18.66,5.54,24.93c-2.77,6.42,30.62-8.31,30.62-8.31s-3.36-17.79-.88-26.83,3.36-16.91,2.48-18.08c-.73-1-11.08.44-11.08.44Z" fill="#f9b499" fill-rule="evenodd"/><path d="M583.5,163.71c1.46,5.83,12.68,9.62,16.91,11.66,4.23,2.19,19.25,18.38,24.06,19.54,4.66,1.31,7.58,5.69,7.58,5.69s8.89-20.56,12.68-23.77-.29-21.29-.29-21.29,4.52-2.18,6.71,1.32c0,0-.44-7.15-7.87-5.11,0,0-1.17-7.14,8.31-4.66-3.5-4.52-12.25-5.11-12.69,1.31,0,0-8.31-8.75-16-11.37s-8.45-8-6-10.65c0,0-7.59,2.48-5.84,9.63,0,0,.3.43-5.39,1.45s-15.16-.87-16-7.72c-2,3.06-2.19,8.75,1.31,11.22-3.5.44-7.58-1.75-9.91-10.79-1.46,1.46-5.83,14.44,1.89,16.92-2.62.58-6.41-3.5-7.29-13.56-5.39,8.16-3.5,14.58-1.16,18.81,2.91,5.25,8.16,8,9,11.37Z" fill="#2f2e41" fill-rule="evenodd"/><path d="M659.9,410.7c-1.61-5.1-1.31-7.14-4.81-17.79-3.5-10.49,2.33-54.09,4.81-99.73s-17.79-73.19-21-76c-1.36-1.13-2.66-1-4.38-.44-9.94-9.92-25.55,8.51-28.42,11.67-6.13,6.7-5.69,12.68-5.69,12.68s-4.08,18.81-7.58,34.41-6,17.35-3.65,41.41-12.39,77.28-12.54,85.88-.43,15.89,5.25,17.2c5.69,1.46,26.54,1.9,36.31,2.34,9.62.29,19.54,5.68,26.68,4.95,7.14-.58,17.93-5.39,18.23-9.18S661.5,415.81,659.9,410.7Z" fill="#0071f2" fill-rule="evenodd"/><path d="M613,246.67s-10.06,8.17.58,26.1,12.25,26.39,15.75,34.27c3.64,7.72,10.5,21.57,11.37,27.55s17.94,56.28,19.1,60.8a72.25,72.25,0,0,1,1.31,12.4c.15,1.6,7.29-1.17,10.65-1.61,3.21-.58,7.29-3.79,6.12-5.54S674,380.23,673.9,363a113,113,0,0,0-5.55-32.51s2.34-4.67-.87-17.35-7.58-22.16-9-35.87-28.58-49-45.49-30.62Z" fill="#0071f2" fill-rule="evenodd"/><path d="M607.26,476.32l54.15,161.55,28.23-10.65c1.46-1.75-2.62-7.72-3.64-12.39s-4.38-30.18-9-68.09c-2.41-18.88-8.2-28.28-13.39-33a9.19,9.19,0,0,0,0-1.15c-.43-5-4.95-36.6-8.6-50.89s-6.85-19.82-6.27-24.93c.73-5.1,7.58-15.89,6.71-22.45S595,411,584.66,419.16c0,0,13.42,43.45,22.6,57.16" fill="#2f2e41" fill-rule="evenodd"/><path d="M603,225.59l-.67-3.18S614.23,216,617,203.17C617,203.17,615.68,220.29,603,225.59Z" fill="#f4a48e" fill-rule="evenodd"/><path d="M600.4,222.84c-4.83-1-10.16-11.45-10.16-11.45C581.65,196.27,581.6,178,581.6,178s.59-13.42,3.94-19c1.31-2,3.94-2,5.39-2,2.63,0,4.52,1.61,8.9,8.6s9.91,7,11.52,9.34c1.6,2.18,2.18,6.85,2.18,6.85,3.65-9.19,13.13-6,12.25,2.77s-7.29,9.77-7.29,9.77S617,220.27,600.4,222.84Z" fill="#f9b499" fill-rule="evenodd"/></svg>